{"title":"Corpse.Bride.2005.720p.BluRay.x264-DON (Silver Torrent)","uid":10905956,"size":2791062161,"categoryP":"video","categoryS":"hd___movies","magnet":"?xt=urn:btih:fee782fca00485de6a14d131a9a7c0cf75cfccba&amp;dn=Corpse.Bride.2005.720p.BluRay.x264-DON+%28Silver+Torrent%29&amp;tr=udp%3A%2F%2Ftracker.openbittorrent.com%3A80&amp;tr=udp%3A%2F%2Fopen.demonii.com%3A1337&amp;tr=udp%3A%2F%2Ftracker.coppersurfer.tk%3A6969&amp;tr=udp%3A%2F%2Fexodus.desync.com%3A6969","seeders":4,"leechers":1,"uploader":"ali1997a","files":3,"time":1409231469,"description":"SilverTorrent - Clean And Verified Torrents Download\n &lt;a href=&quot;\nhttp://i.imgur.com/ky6BGho.png&quot; rel=&quot;nofollow&quot; target=&quot;_NEW&quot;&gt;\nhttp://i.imgur.com/ky6BGho.png&lt;/a&gt;\n &lt;a href=&quot;\nhttp://i.imgur.com/mPHjjWs.jpg&quot; rel=&quot;nofollow&quot; target=&quot;_NEW&quot;&gt;\nhttp://i.imgur.com/mPHjjWs.jpg&lt;/a&gt;\n\nCorpse.Bride.2005.720p.BluRay.x264-DON (Silver Torrent)\n\niMDB:http://www.imdb.com/title/tt0121164/\n\nGeneral\n\nFormat                           : Matroska\nFormat version                   : Version 2\nFile size                        : 2.60 GiB\nDuration                         : 1h 17mn\nOverall bit rate                 : 4 821 Kbps\nEncoded date                     : UTC 2009-05-22 20:26:04\nWriting application              : mkvmerge v2.8.0 ('The Tree') built on May  9 2009 18:02:06\nWriting library                  : libebml v0.7.7 + libmatroska v0.8.1\n\nVideo\n\nID                               : 1\nFormat                           : AVC\nFormat/Info                      : Advanced Video Codec\nFormat profile                   : &lt;a class=&quot;__cf_email__&quot; href=&quot;/cdn-cgi/l/email-protection&quot; data-cfemail=&quot;cf87a6a8a78f83fae1fe&quot;&gt;[email&amp;#160;protected]&lt;/a&gt;&lt;script cf-hash='f9e31' type=&quot;text/javascript&quot;&gt;\n/* &lt;![CDATA[ */!function(){try{var t=&quot;currentScript&quot;in document?document.currentScript:function(){for(var t=document.getElementsByTagName(&quot;script&quot;),e=t.length;e--;)if(t[e].getAttribute(&quot;cf-hash&quot;))return t[e]}();if(t&amp;&amp;t.previousSibling){var e,r,n,i,c=t.previousSibling,a=c.getAttribute(&quot;data-cfemail&quot;);if(a){for(e=&quot;&quot;,r=parseInt(a.substr(0,2),16),n=2;a.length-n;n+=2)i=parseInt(a.substr(n,2),16)^r,e+=String.fromCharCode(i);e=document.createTextNode(e),c.parentNode.replaceChild(e,c)}}}catch(u){}}();/* ]]&gt; */&lt;/script&gt;\nFormat settings, CABAC           : Yes\nFormat settings, ReFrames        : 9 frames\nCodec ID                         : V_MPEG4/ISO/AVC\nDuration                         : 1h 17mn\nBit rate                         : 4 179 Kbps\nWidth                            : 1 280 pixels\nHeight                           : 720 pixels\nDisplay aspect ratio             : 16:9\nFrame rate                       : 23.976 fps\nColor space                      : YUV\nChroma subsampling               : 4:2:0\nBit depth                        : 8 bits\nScan type                        : Progressive\nBits/(Pixel*Frame)               : 0.189\nStream size                      : 2.20 GiB (85%)\nWriting library                  : x264 core 67 r1153M 7b6ce6a\nEncoding settings                : cabac=1 / ref=9 / deblock=1:-3:-3 / analyse=0x3:0x133 / me=umh / subme=9 / psy_rd=1.0:0.0 / mixed_ref=1 / me_range=40 / chroma_me=1 / trellis=2 / 8x8dct=1 / cqm=0 / deadzone=21,11 / chroma_qp_offset=-2 / threads=6 / nr=0 / decimate=1 / mbaff=0 / bframes=5 / b_pyramid=1 / b_adapt=2 / b_bias=0 / direct=3 / wpredb=1 / keyint=250 / keyint_min=25 / scenecut=40 / rc=2pass / bitrate=4179 / ratetol=1.0 / qcomp=0.60 / qpmin=10 / qpmax=51 / qpstep=4 / cplxblur=20.0 / qblur=0.5 / ip_ratio=1.40 / pb_ratio=1.30 / aq=1:0.60\nLanguage                         : English\nDefault                          : Yes\nForced                           : No\n\nAudio\n\nID                               : 2\nFormat                           : AC-3\nFormat/Info                      : Audio Coding 3\nMode extension                   : CM (complete main)\nCodec ID                         : A_AC3\nDuration                         : 1h 17mn\nBit rate mode                    : Constant\nBit rate                         : 640 Kbps\nChannel(s)                       : 6 channels\nChannel positions                : Front: L C R, Side: L R, LFE\nSampling rate                    : 48.0 KHz\nBit depth                        : 16 bits\nCompression mode                 : Lossy\nStream size                      : 353 MiB (13%)\nLanguage                         : English\nDefault                          : Yes\nForced                           : No\n\nText\n\nID                               : 3\nFormat                           : UTF-8\nCodec ID                         : S_TEXT/UTF8\nCodec ID/Info                    : UTF-8 Plain Text\nLanguage                         : English\nDefault                          : No\nForced                           : No\n &lt;a href=&quot;\nhttp://i.imgur.com/FG1KtHB.png&quot; rel=&quot;nofollow&quot; target=&quot;_NEW&quot;&gt;\nhttp://i.imgur.com/FG1KtHB.png&lt;/a&gt;\n &lt;a href=&quot;\nhttp://i.imgur.com/S4S9Ko2.png&quot; rel=&quot;nofollow&quot; target=&quot;_NEW&quot;&gt;\nhttp://i.imgur.com/S4S9Ko2.png&lt;/a&gt;\n &lt;a href=&quot;\nhttp://i.imgur.com/YfLxPar.png&quot; rel=&quot;nofollow&quot; target=&quot;_NEW&quot;&gt;\nhttp://i.imgur.com/YfLxPar.png&lt;/a&gt;\n &lt;a href=&quot;\nhttp://i.imgur.com/dYPjpqq.png&quot; rel=&quot;nofollow&quot; target=&quot;_NEW&quot;&gt;\nhttp://i.imgur.com/dYPjpqq.png&lt;/a&gt;\n","torrent":{"xt":"urn:btih:fee782fca00485de6a14d131a9a7c0cf75cfccba","amp;dn":"Corpse.Bride.2005.720p.BluRay.x264-DON+%28Silver+Torrent%29","amp;tr":["udp%3A%2F%2Ftracker.openbittorrent.com%3A80","udp%3A%2F%2Fopen.demonii.com%3A1337","udp%3A%2F%2Ftracker.coppersurfer.tk%3A6969","udp%3A%2F%2Fexodus.desync.com%3A6969"],"infoHash":"fee782fca00485de6a14d131a9a7c0cf75cfccba","infoHashBuffer":{"type":"Buffer","data":[254,231,130,252,160,4,133,222,106,20,209,49,169,167,192,207,117,207,204,186]},"announce":[],"urlList":[]}}